<svg xmlns="http://www.w3.org/2000/svg" xmlns:xlink="http://www.w3.org/1999/xlink" width="500" zoomAndPan="magnify" viewBox="0 0 375 187.499995" height="250" preserveAspectRatio="xMidYMid meet" version="1.0"><defs><clipPath id="c31d4a56a9"><path d="M 184 36 L 282.839844 36 L 282.839844 93 L 184 93 Z M 184 36 " clip-rule="nonzero"/></clipPath><clipPath id="fe3065592f"><path d="M 142.242188 75 L 198 75 L 198 139.65625 L 142.242188 139.65625 Z M 142.242188 75 " clip-rule="nonzero"/></clipPath></defs><path fill="#60d2ff" d="M 267.175781 37.570312 C 274.933594 37.570312 281.226562 43.855469 281.226562 51.609375 C 281.226562 59.363281 274.933594 65.644531 267.175781 65.644531 C 259.414062 65.644531 253.125 59.363281 253.125 51.609375 C 253.125 43.855469 259.414062 37.570312 267.175781 37.570312 Z M 267.175781 37.570312 " fill-opacity="1" fill-rule="evenodd"/><g clip-path="url(#c31d4a56a9)"><path fill="#009dff" d="M 253.125 71.144531 C 257.382812 81.28125 270.648438 82.988281 279.808594 82.875 C 281.097656 82.859375 282.179688 83.699219 282.5 84.945312 C 282.808594 86.191406 282.246094 87.453125 281.113281 88.039062 C 278.128906 89.59375 274.207031 91.132812 269.261719 92.15625 C 255.085938 95.078125 239.199219 87.507812 234.183594 74.6875 C 229.167969 61.867188 222.570312 53.929688 211.8125 52.335938 C 206.152344 51.496094 196.320312 51.648438 188.277344 51.972656 C 186.710938 52.042969 185.335938 51.046875 184.902344 49.535156 C 184.46875 48.023438 185.113281 46.457031 186.484375 45.6875 C 197.203125 39.683594 213.96875 33.945312 225.933594 36.800781 C 245.363281 41.445312 246.398438 55.148438 253.125 71.144531 Z M 253.125 71.144531 " fill-opacity="1" fill-rule="evenodd"/></g><path fill="#0055d1" d="M 241.273438 102.160156 C 245.054688 105.941406 248.359375 115.960938 232.109375 119.867188 C 222.851562 122.09375 204.585938 124.625 190.589844 126.375 C 189.117188 126.558594 187.773438 125.660156 187.367188 124.246094 C 186.960938 122.835938 187.632812 121.351562 188.980469 120.734375 L 216.167969 108.207031 C 216.167969 108.207031 201.136719 98.074219 200.15625 86.347656 C 199.136719 74.128906 205.636719 65.839844 215.511719 61.710938 C 216.757812 61.195312 218.101562 61.375 219.152344 62.230469 C 220.203125 63.070312 220.679688 64.34375 220.441406 65.671875 C 219.449219 71.175781 218.941406 79.332031 222.894531 85.058594 C 229.351562 94.464844 237.476562 98.367188 241.273438 102.160156 Z M 241.273438 102.160156 " fill-opacity="1" fill-rule="evenodd"/><g clip-path="url(#fe3065592f)"><path fill="#0c3795" d="M 197.550781 98.535156 C 197.355469 99.195312 196.921875 99.699219 196.292969 99.949219 C 176.722656 108.054688 160.597656 122.972656 146.449219 138.664062 C 145.71875 139.460938 144.570312 139.65625 143.632812 139.113281 C 142.695312 138.566406 142.273438 137.472656 142.609375 136.453125 C 149.8125 114.183594 171.160156 85.253906 190.855469 76.042969 C 191.640625 75.679688 192.496094 75.765625 193.179688 76.296875 C 193.867188 76.816406 194.191406 77.625 194.050781 78.480469 C 192.972656 84.945312 193.320312 91.214844 197.214844 96.660156 C 197.621094 97.222656 197.734375 97.863281 197.550781 98.535156 Z M 197.550781 98.535156 " fill-opacity="1" fill-rule="evenodd"/></g><path stroke-linecap="round" transform="matrix(0.528566, 0, 0, 0.528566, 106.084674, 41.628932)" fill="none" stroke-linejoin="miter" d="M 10.001441 9.999002 L 123.981757 9.999002 " stroke="#60d2ff" stroke-width="20" stroke-opacity="1" stroke-miterlimit="4"/><path stroke-linecap="round" transform="matrix(0.528566, 0, 0, 0.528566, 66.855458, 75.529847)" fill="none" stroke-linejoin="miter" d="M 9.999072 10.001705 L 165.261501 10.001705 " stroke="#009dff" stroke-width="20" stroke-opacity="1" stroke-miterlimit="4"/><path stroke-linecap="round" transform="matrix(0.528566, 0, 0, 0.528566, 99.811955, 109.7942)" fill="none" stroke-linejoin="miter" d="M 10.000083 9.996722 L 68.856287 9.996722 " stroke="#0c3795" stroke-width="20" stroke-opacity="1" stroke-miterlimit="4"/></svg>